<svg width="604" height="654" viewBox="0 0 604 654" fill="none" xmlns="http://www.w3.org/2000/svg">
<g clip-path="url(#clip0_4020_986)">
<mask id="path-2-inside-1_4020_986" fill="white">
<path fill-rule="evenodd" clip-rule="evenodd" d="M452 52.9679C452 52.4262 451.542 52 451 52V52C442.716 52 436 45.2843 436 37V37C436 32.7697 433.103 27 428.872 27H175.128C170.897 27 168 32.7697 168 37V37C168 45.2843 161.284 52 153 52V52C152.458 52 152 52.4262 152 52.9679V494.032C152 494.574 152.458 495 153 495V495C161.284 495 168 501.716 168 510C168 510.814 167.935 511.612 167.811 512.391C167.726 512.916 168 513.468 168 514V514V514C168 514.874 166.983 515.511 166.615 516.304C164.234 521.439 159.033 525 153 525V525C152.458 525 152 525.426 152 525.968V601.032C152 601.574 152.458 602 153 602V602C161.284 602 168 608.716 168 617V617C168 621.23 170.897 627 175.128 627H428.872C433.103 627 436 621.23 436 617V617C436 608.716 442.716 602 451 602V602C451.542 602 452 601.574 452 601.032V531.654C452 527.679 446.975 525 443 525V525C437.84 525 433.289 522.395 430.59 518.428C429.291 516.519 427.309 515 425 515V515C424.448 515 424 514.552 424 514C424 513.448 424.448 513 425 513H425.28C426.841 513 428 511.561 428 510V510C428 501.716 434.716 495 443 495V495C446.975 495 452 492.321 452 488.346V52.9679ZM419 515C419.552 515 420 514.552 420 514C420 513.448 419.552 513 419 513H413C412.448 513 412 513.448 412 514C412 514.552 412.448 515 413 515H419ZM408 514C408 514.552 407.552 515 407 515H401C400.448 515 400 514.552 400 514C400 513.448 400.448 513 401 513H407C407.552 513 408 513.448 408 514ZM395 515C395.552 515 396 514.552 396 514C396 513.448 395.552 513 395 513H389C388.448 513 388 513.448 388 514C388 514.552 388.448 515 389 515H395ZM384 514C384 514.552 383.552 515 383 515H377C376.448 515 376 514.552 376 514C376 513.448 376.448 513 377 513H383C383.552 513 384 513.448 384 514ZM371 515C371.552 515 372 514.552 372 514C372 513.448 371.552 513 371 513H365C364.448 513 364 513.448 364 514C364 514.552 364.448 515 365 515H371ZM360 514C360 514.552 359.552 515 359 515H353C352.448 515 352 514.552 352 514C352 513.448 352.448 513 353 513H359C359.552 513 360 513.448 360 514ZM347 515C347.552 515 348 514.552 348 514C348 513.448 347.552 513 347 513H341C340.448 513 340 513.448 340 514C340 514.552 340.448 515 341 515H347ZM336 514C336 514.552 335.552 515 335 515H329C328.448 515 328 514.552 328 514C328 513.448 328.448 513 329 513H335C335.552 513 336 513.448 336 514ZM323 515C323.552 515 324 514.552 324 514C324 513.448 323.552 513 323 513H317C316.448 513 316 513.448 316 514C316 514.552 316.448 515 317 515H323ZM312 514C312 514.552 311.552 515 311 515H305C304.448 515 304 514.552 304 514C304 513.448 304.448 513 305 513H311C311.552 513 312 513.448 312 514ZM299 515C299.552 515 300 514.552 300 514C300 513.448 299.552 513 299 513H293C292.448 513 292 513.448 292 514C292 514.552 292.448 515 293 515H299ZM288 514C288 514.552 287.552 515 287 515H281C280.448 515 280 514.552 280 514C280 513.448 280.448 513 281 513H287C287.552 513 288 513.448 288 514ZM275 515C275.552 515 276 514.552 276 514C276 513.448 275.552 513 275 513H269C268.448 513 268 513.448 268 514C268 514.552 268.448 515 269 515H275ZM264 514C264 514.552 263.552 515 263 515H257C256.448 515 256 514.552 256 514C256 513.448 256.448 513 257 513H263C263.552 513 264 513.448 264 514ZM251 515C251.552 515 252 514.552 252 514C252 513.448 251.552 513 251 513H245C244.448 513 244 513.448 244 514C244 514.552 244.448 515 245 515H251ZM240 514C240 514.552 239.552 515 239 515H233C232.448 515 232 514.552 232 514C232 513.448 232.448 513 233 513H239C239.552 513 240 513.448 240 514ZM227 515C227.552 515 228 514.552 228 514C228 513.448 227.552 513 227 513H221C220.448 513 220 513.448 220 514C220 514.552 220.448 515 221 515H227ZM216 514C216 514.552 215.552 515 215 515H209C208.448 515 208 514.552 208 514C208 513.448 208.448 513 209 513H215C215.552 513 216 513.448 216 514ZM203 515C203.552 515 204 514.552 204 514C204 513.448 203.552 513 203 513H197C196.448 513 196 513.448 196 514C196 514.552 196.448 515 197 515H203ZM192 514C192 514.552 191.552 515 191 515H185C184.448 515 184 514.552 184 514C184 513.448 184.448 513 185 513H191C191.552 513 192 513.448 192 514ZM179 515C179.552 515 180 514.552 180 514C180 513.448 179.552 513 179 513H173C172.448 513 172 513.448 172 514C172 514.552 172.448 515 173 515H179Z"/>
</mask>
<path fill-rule="evenodd" clip-rule="evenodd" d="M452 52.9679C452 52.4262 451.542 52 451 52V52C442.716 52 436 45.2843 436 37V37C436 32.7697 433.103 27 428.872 27H175.128C170.897 27 168 32.7697 168 37V37C168 45.2843 161.284 52 153 52V52C152.458 52 152 52.4262 152 52.9679V494.032C152 494.574 152.458 495 153 495V495C161.284 495 168 501.716 168 510C168 510.814 167.935 511.612 167.811 512.391C167.726 512.916 168 513.468 168 514V514V514C168 514.874 166.983 515.511 166.615 516.304C164.234 521.439 159.033 525 153 525V525C152.458 525 152 525.426 152 525.968V601.032C152 601.574 152.458 602 153 602V602C161.284 602 168 608.716 168 617V617C168 621.23 170.897 627 175.128 627H428.872C433.103 627 436 621.23 436 617V617C436 608.716 442.716 602 451 602V602C451.542 602 452 601.574 452 601.032V531.654C452 527.679 446.975 525 443 525V525C437.84 525 433.289 522.395 430.59 518.428C429.291 516.519 427.309 515 425 515V515C424.448 515 424 514.552 424 514C424 513.448 424.448 513 425 513H425.28C426.841 513 428 511.561 428 510V510C428 501.716 434.716 495 443 495V495C446.975 495 452 492.321 452 488.346V52.9679ZM419 515C419.552 515 420 514.552 420 514C420 513.448 419.552 513 419 513H413C412.448 513 412 513.448 412 514C412 514.552 412.448 515 413 515H419ZM408 514C408 514.552 407.552 515 407 515H401C400.448 515 400 514.552 400 514C400 513.448 400.448 513 401 513H407C407.552 513 408 513.448 408 514ZM395 515C395.552 515 396 514.552 396 514C396 513.448 395.552 513 395 513H389C388.448 513 388 513.448 388 514C388 514.552 388.448 515 389 515H395ZM384 514C384 514.552 383.552 515 383 515H377C376.448 515 376 514.552 376 514C376 513.448 376.448 513 377 513H383C383.552 513 384 513.448 384 514ZM371 515C371.552 515 372 514.552 372 514C372 513.448 371.552 513 371 513H365C364.448 513 364 513.448 364 514C364 514.552 364.448 515 365 515H371ZM360 514C360 514.552 359.552 515 359 515H353C352.448 515 352 514.552 352 514C352 513.448 352.448 513 353 513H359C359.552 513 360 513.448 360 514ZM347 515C347.552 515 348 514.552 348 514C348 513.448 347.552 513 347 513H341C340.448 513 340 513.448 340 514C340 514.552 340.448 515 341 515H347ZM336 514C336 514.552 335.552 515 335 515H329C328.448 515 328 514.552 328 514C328 513.448 328.448 513 329 513H335C335.552 513 336 513.448 336 514ZM323 515C323.552 515 324 514.552 324 514C324 513.448 323.552 513 323 513H317C316.448 513 316 513.448 316 514C316 514.552 316.448 515 317 515H323ZM312 514C312 514.552 311.552 515 311 515H305C304.448 515 304 514.552 304 514C304 513.448 304.448 513 305 513H311C311.552 513 312 513.448 312 514ZM299 515C299.552 515 300 514.552 300 514C300 513.448 299.552 513 299 513H293C292.448 513 292 513.448 292 514C292 514.552 292.448 515 293 515H299ZM288 514C288 514.552 287.552 515 287 515H281C280.448 515 280 514.552 280 514C280 513.448 280.448 513 281 513H287C287.552 513 288 513.448 288 514ZM275 515C275.552 515 276 514.552 276 514C276 513.448 275.552 513 275 513H269C268.448 513 268 513.448 268 514C268 514.552 268.448 515 269 515H275ZM264 514C264 514.552 263.552 515 263 515H257C256.448 515 256 514.552 256 514C256 513.448 256.448 513 257 513H263C263.552 513 264 513.448 264 514ZM251 515C251.552 515 252 514.552 252 514C252 513.448 251.552 513 251 513H245C244.448 513 244 513.448 244 514C244 514.552 244.448 515 245 515H251ZM240 514C240 514.552 239.552 515 239 515H233C232.448 515 232 514.552 232 514C232 513.448 232.448 513 233 513H239C239.552 513 240 513.448 240 514ZM227 515C227.552 515 228 514.552 228 514C228 513.448 227.552 513 227 513H221C220.448 513 220 513.448 220 514C220 514.552 220.448 515 221 515H227ZM216 514C216 514.552 215.552 515 215 515H209C208.448 515 208 514.552 208 514C208 513.448 208.448 513 209 513H215C215.552 513 216 513.448 216 514ZM203 515C203.552 515 204 514.552 204 514C204 513.448 203.552 513 203 513H197C196.448 513 196 513.448 196 514C196 514.552 196.448 515 197 515H203ZM192 514C192 514.552 191.552 515 191 515H185C184.448 515 184 514.552 184 514C184 513.448 184.448 513 185 513H191C191.552 513 192 513.448 192 514ZM179 515C179.552 515 180 514.552 180 514C180 513.448 179.552 513 179 513H173C172.448 513 172 513.448 172 514C172 514.552 172.448 515 173 515H179Z" fill="#072C31"/>
<path fill-rule="evenodd" clip-rule="evenodd" d="M452 52.9679C452 52.4262 451.542 52 451 52V52C442.716 52 436 45.2843 436 37V37C436 32.7697 433.103 27 428.872 27H175.128C170.897 27 168 32.7697 168 37V37C168 45.2843 161.284 52 153 52V52C152.458 52 152 52.4262 152 52.9679V494.032C152 494.574 152.458 495 153 495V495C161.284 495 168 501.716 168 510C168 510.814 167.935 511.612 167.811 512.391C167.726 512.916 168 513.468 168 514V514V514C168 514.874 166.983 515.511 166.615 516.304C164.234 521.439 159.033 525 153 525V525C152.458 525 152 525.426 152 525.968V601.032C152 601.574 152.458 602 153 602V602C161.284 602 168 608.716 168 617V617C168 621.23 170.897 627 175.128 627H428.872C433.103 627 436 621.23 436 617V617C436 608.716 442.716 602 451 602V602C451.542 602 452 601.574 452 601.032V531.654C452 527.679 446.975 525 443 525V525C437.84 525 433.289 522.395 430.59 518.428C429.291 516.519 427.309 515 425 515V515C424.448 515 424 514.552 424 514C424 513.448 424.448 513 425 513H425.28C426.841 513 428 511.561 428 510V510C428 501.716 434.716 495 443 495V495C446.975 495 452 492.321 452 488.346V52.9679ZM419 515C419.552 515 420 514.552 420 514C420 513.448 419.552 513 419 513H413C412.448 513 412 513.448 412 514C412 514.552 412.448 515 413 515H419ZM408 514C408 514.552 407.552 515 407 515H401C400.448 515 400 514.552 400 514C400 513.448 400.448 513 401 513H407C407.552 513 408 513.448 408 514ZM395 515C395.552 515 396 514.552 396 514C396 513.448 395.552 513 395 513H389C388.448 513 388 513.448 388 514C388 514.552 388.448 515 389 515H395ZM384 514C384 514.552 383.552 515 383 515H377C376.448 515 376 514.552 376 514C376 513.448 376.448 513 377 513H383C383.552 513 384 513.448 384 514ZM371 515C371.552 515 372 514.552 372 514C372 513.448 371.552 513 371 513H365C364.448 513 364 513.448 364 514C364 514.552 364.448 515 365 515H371ZM360 514C360 514.552 359.552 515 359 515H353C352.448 515 352 514.552 352 514C352 513.448 352.448 513 353 513H359C359.552 513 360 513.448 360 514ZM347 515C347.552 515 348 514.552 348 514C348 513.448 347.552 513 347 513H341C340.448 513 340 513.448 340 514C340 514.552 340.448 515 341 515H347ZM336 514C336 514.552 335.552 515 335 515H329C328.448 515 328 514.552 328 514C328 513.448 328.448 513 329 513H335C335.552 513 336 513.448 336 514ZM323 515C323.552 515 324 514.552 324 514C324 513.448 323.552 513 323 513H317C316.448 513 316 513.448 316 514C316 514.552 316.448 515 317 515H323ZM312 514C312 514.552 311.552 515 311 515H305C304.448 515 304 514.552 304 514C304 513.448 304.448 513 305 513H311C311.552 513 312 513.448 312 514ZM299 515C299.552 515 300 514.552 300 514C300 513.448 299.552 513 299 513H293C292.448 513 292 513.448 292 514C292 514.552 292.448 515 293 515H299ZM288 514C288 514.552 287.552 515 287 515H281C280.448 515 280 514.552 280 514C280 513.448 280.448 513 281 513H287C287.552 513 288 513.448 288 514ZM275 515C275.552 515 276 514.552 276 514C276 513.448 275.552 513 275 513H269C268.448 513 268 513.448 268 514C268 514.552 268.448 515 269 515H275ZM264 514C264 514.552 263.552 515 263 515H257C256.448 515 256 514.552 256 514C256 513.448 256.448 513 257 513H263C263.552 513 264 513.448 264 514ZM251 515C251.552 515 252 514.552 252 514C252 513.448 251.552 513 251 513H245C244.448 513 244 513.448 244 514C244 514.552 244.448 515 245 515H251ZM240 514C240 514.552 239.552 515 239 515H233C232.448 515 232 514.552 232 514C232 513.448 232.448 513 233 513H239C239.552 513 240 513.448 240 514ZM227 515C227.552 515 228 514.552 228 514C228 513.448 227.552 513 227 513H221C220.448 513 220 513.448 220 514C220 514.552 220.448 515 221 515H227ZM216 514C216 514.552 215.552 515 215 515H209C208.448 515 208 514.552 208 514C208 513.448 208.448 513 209 513H215C215.552 513 216 513.448 216 514ZM203 515C203.552 515 204 514.552 204 514C204 513.448 203.552 513 203 513H197C196.448 513 196 513.448 196 514C196 514.552 196.448 515 197 515H203ZM192 514C192 514.552 191.552 515 191 515H185C184.448 515 184 514.552 184 514C184 513.448 184.448 513 185 513H191C191.552 513 192 513.448 192 514ZM179 515C179.552 515 180 514.552 180 514C180 513.448 179.552 513 179 513H173C172.448 513 172 513.448 172 514C172 514.552 172.448 515 173 515H179Z" fill="url(#paint0_radial_4020_986)"/>
<path fill-rule="evenodd" clip-rule="evenodd" d="M452 52.9679C452 52.4262 451.542 52 451 52V52C442.716 52 436 45.2843 436 37V37C436 32.7697 433.103 27 428.872 27H175.128C170.897 27 168 32.7697 168 37V37C168 45.2843 161.284 52 153 52V52C152.458 52 152 52.4262 152 52.9679V494.032C152 494.574 152.458 495 153 495V495C161.284 495 168 501.716 168 510C168 510.814 167.935 511.612 167.811 512.391C167.726 512.916 168 513.468 168 514V514V514C168 514.874 166.983 515.511 166.615 516.304C164.234 521.439 159.033 525 153 525V525C152.458 525 152 525.426 152 525.968V601.032C152 601.574 152.458 602 153 602V602C161.284 602 168 608.716 168 617V617C168 621.23 170.897 627 175.128 627H428.872C433.103 627 436 621.23 436 617V617C436 608.716 442.716 602 451 602V602C451.542 602 452 601.574 452 601.032V531.654C452 527.679 446.975 525 443 525V525C437.84 525 433.289 522.395 430.59 518.428C429.291 516.519 427.309 515 425 515V515C424.448 515 424 514.552 424 514C424 513.448 424.448 513 425 513H425.28C426.841 513 428 511.561 428 510V510C428 501.716 434.716 495 443 495V495C446.975 495 452 492.321 452 488.346V52.9679ZM419 515C419.552 515 420 514.552 420 514C420 513.448 419.552 513 419 513H413C412.448 513 412 513.448 412 514C412 514.552 412.448 515 413 515H419ZM408 514C408 514.552 407.552 515 407 515H401C400.448 515 400 514.552 400 514C400 513.448 400.448 513 401 513H407C407.552 513 408 513.448 408 514ZM395 515C395.552 515 396 514.552 396 514C396 513.448 395.552 513 395 513H389C388.448 513 388 513.448 388 514C388 514.552 388.448 515 389 515H395ZM384 514C384 514.552 383.552 515 383 515H377C376.448 515 376 514.552 376 514C376 513.448 376.448 513 377 513H383C383.552 513 384 513.448 384 514ZM371 515C371.552 515 372 514.552 372 514C372 513.448 371.552 513 371 513H365C364.448 513 364 513.448 364 514C364 514.552 364.448 515 365 515H371ZM360 514C360 514.552 359.552 515 359 515H353C352.448 515 352 514.552 352 514C352 513.448 352.448 513 353 513H359C359.552 513 360 513.448 360 514ZM347 515C347.552 515 348 514.552 348 514C348 513.448 347.552 513 347 513H341C340.448 513 340 513.448 340 514C340 514.552 340.448 515 341 515H347ZM336 514C336 514.552 335.552 515 335 515H329C328.448 515 328 514.552 328 514C328 513.448 328.448 513 329 513H335C335.552 513 336 513.448 336 514ZM323 515C323.552 515 324 514.552 324 514C324 513.448 323.552 513 323 513H317C316.448 513 316 513.448 316 514C316 514.552 316.448 515 317 515H323ZM312 514C312 514.552 311.552 515 311 515H305C304.448 515 304 514.552 304 514C304 513.448 304.448 513 305 513H311C311.552 513 312 513.448 312 514ZM299 515C299.552 515 300 514.552 300 514C300 513.448 299.552 513 299 513H293C292.448 513 292 513.448 292 514C292 514.552 292.448 515 293 515H299ZM288 514C288 514.552 287.552 515 287 515H281C280.448 515 280 514.552 280 514C280 513.448 280.448 513 281 513H287C287.552 513 288 513.448 288 514ZM275 515C275.552 515 276 514.552 276 514C276 513.448 275.552 513 275 513H269C268.448 513 268 513.448 268 514C268 514.552 268.448 515 269 515H275ZM264 514C264 514.552 263.552 515 263 515H257C256.448 515 256 514.552 256 514C256 513.448 256.448 513 257 513H263C263.552 513 264 513.448 264 514ZM251 515C251.552 515 252 514.552 252 514C252 513.448 251.552 513 251 513H245C244.448 513 244 513.448 244 514C244 514.552 244.448 515 245 515H251ZM240 514C240 514.552 239.552 515 239 515H233C232.448 515 232 514.552 232 514C232 513.448 232.448 513 233 513H239C239.552 513 240 513.448 240 514ZM227 515C227.552 515 228 514.552 228 514C228 513.448 227.552 513 227 513H221C220.448 513 220 513.448 220 514C220 514.552 220.448 515 221 515H227ZM216 514C216 514.552 215.552 515 215 515H209C208.448 515 208 514.552 208 514C208 513.448 208.448 513 209 513H215C215.552 513 216 513.448 216 514ZM203 515C203.552 515 204 514.552 204 514C204 513.448 203.552 513 203 513H197C196.448 513 196 513.448 196 514C196 514.552 196.448 515 197 515H203ZM192 514C192 514.552 191.552 515 191 515H185C184.448 515 184 514.552 184 514C184 513.448 184.448 513 185 513H191C191.552 513 192 513.448 192 514ZM179 515C179.552 515 180 514.552 180 514C180 513.448 179.552 513 179 513H173C172.448 513 172 513.448 172 514C172 514.552 172.448 515 173 515H179Z" fill="url(#paint1_radial_4020_986)"/>
<path d="M166.615 516.304L167.522 516.724L166.615 516.304ZM167.811 512.391L166.823 512.232L167.811 512.391ZM430.59 518.428L429.763 518.991L430.59 518.428ZM435 37C435 45.8366 442.163 53 451 53V51C443.268 51 437 44.732 437 37H435ZM175.128 28H428.872V26H175.128V28ZM153 53C161.837 53 169 45.8366 169 37H167C167 44.732 160.732 51 153 51V53ZM153 494.032V52.9679H151V494.032H153ZM169 510C169 501.163 161.837 494 153 494V496C160.732 496 167 502.268 167 510H169ZM168.798 512.549C168.931 511.718 169 510.867 169 510H167C167 510.76 166.939 511.506 166.823 512.232L168.798 512.549ZM153 526C159.436 526 164.983 522.199 167.522 516.724L165.708 515.883C163.484 520.678 158.629 524 153 524V526ZM153 601.032V525.968H151V601.032H153ZM169 617C169 608.163 161.837 601 153 601V603C160.732 603 167 609.268 167 617H169ZM428.872 626H175.128V628H428.872V626ZM437 617C437 609.268 443.268 603 451 603V601C442.163 601 435 608.163 435 617H437ZM451 531.654V601.032H453V531.654H451ZM429.763 518.991C432.641 523.22 437.496 526 443 526V524C438.185 524 433.938 521.57 431.417 517.866L429.763 518.991ZM423 514C423 515.105 423.895 516 425 516V514H423ZM425 512C423.895 512 423 512.895 423 514H425V512ZM425.28 512H425V514H425.28V512ZM443 494C434.163 494 427 501.163 427 510H429C429 502.268 435.268 496 443 496V494ZM451 52.9679V488.346H453V52.9679H451ZM419 514V516C420.105 516 421 515.105 421 514H419ZM419 514H421C421 512.895 420.105 512 419 512V514ZM413 514H419V512H413V514ZM413 514V512C411.895 512 411 512.895 411 514H413ZM413 514H411C411 515.105 411.895 516 413 516V514ZM419 514H413V516H419V514ZM407 516C408.105 516 409 515.105 409 514H407V516ZM401 516H407V514H401V516ZM399 514C399 515.105 399.895 516 401 516V514H399ZM401 512C399.895 512 399 512.895 399 514H401V512ZM407 512H401V514H407V512ZM409 514C409 512.895 408.105 512 407 512V514H409ZM395 514V516C396.105 516 397 515.105 397 514H395ZM395 514H397C397 512.895 396.105 512 395 512V514ZM389 514H395V512H389V514ZM389 514V512C387.895 512 387 512.895 387 514H389ZM389 514H387C387 515.105 387.895 516 389 516V514ZM395 514H389V516H395V514ZM383 516C384.105 516 385 515.105 385 514H383V516ZM377 516H383V514H377V516ZM375 514C375 515.105 375.895 516 377 516V514H375ZM377 512C375.895 512 375 512.895 375 514H377V512ZM383 512H377V514H383V512ZM385 514C385 512.895 384.105 512 383 512V514H385ZM371 514V516C372.105 516 373 515.105 373 514H371ZM371 514H373C373 512.895 372.105 512 371 512V514ZM365 514H371V512H365V514ZM365 514V512C363.895 512 363 512.895 363 514H365ZM365 514H363C363 515.105 363.895 516 365 516V514ZM371 514H365V516H371V514ZM359 516C360.105 516 361 515.105 361 514H359V516ZM353 516H359V514H353V516ZM351 514C351 515.105 351.895 516 353 516V514H351ZM353 512C351.895 512 351 512.895 351 514H353V512ZM359 512H353V514H359V512ZM361 514C361 512.895 360.105 512 359 512V514H361ZM347 514V516C348.105 516 349 515.105 349 514H347ZM347 514H349C349 512.895 348.105 512 347 512V514ZM341 514H347V512H341V514ZM341 514V512C339.895 512 339 512.895 339 514H341ZM341 514H339C339 515.105 339.895 516 341 516V514ZM347 514H341V516H347V514ZM335 516C336.105 516 337 515.105 337 514H335V516ZM329 516H335V514H329V516ZM327 514C327 515.105 327.895 516 329 516V514H327ZM329 512C327.895 512 327 512.895 327 514H329V512ZM335 512H329V514H335V512ZM337 514C337 512.895 336.105 512 335 512V514H337ZM323 514V516C324.105 516 325 515.105 325 514H323ZM323 514H325C325 512.895 324.105 512 323 512V514ZM317 514H323V512H317V514ZM317 514V512C315.895 512 315 512.895 315 514H317ZM317 514H315C315 515.105 315.895 516 317 516V514ZM323 514H317V516H323V514ZM311 516C312.105 516 313 515.105 313 514H311V516ZM305 516H311V514H305V516ZM303 514C303 515.105 303.895 516 305 516V514H303ZM305 512C303.895 512 303 512.895 303 514H305V512ZM311 512H305V514H311V512ZM313 514C313 512.895 312.105 512 311 512V514H313ZM299 514V516C300.105 516 301 515.105 301 514H299ZM299 514H301C301 512.895 300.105 512 299 512V514ZM293 514H299V512H293V514ZM293 514V512C291.895 512 291 512.895 291 514H293ZM293 514H291C291 515.105 291.895 516 293 516V514ZM299 514H293V516H299V514ZM287 516C288.105 516 289 515.105 289 514H287V516ZM281 516H287V514H281V516ZM279 514C279 515.105 279.895 516 281 516V514H279ZM281 512C279.895 512 279 512.895 279 514H281V512ZM287 512H281V514H287V512ZM289 514C289 512.895 288.105 512 287 512V514H289ZM275 514V516C276.105 516 277 515.105 277 514H275ZM275 514H277C277 512.895 276.105 512 275 512V514ZM269 514H275V512H269V514ZM269 514V512C267.895 512 267 512.895 267 514H269ZM269 514H267C267 515.105 267.895 516 269 516V514ZM275 514H269V516H275V514ZM263 516C264.105 516 265 515.105 265 514H263V516ZM257 516H263V514H257V516ZM255 514C255 515.105 255.895 516 257 516V514H255ZM257 512C255.895 512 255 512.895 255 514H257V512ZM263 512H257V514H263V512ZM265 514C265 512.895 264.105 512 263 512V514H265ZM251 514V516C252.105 516 253 515.105 253 514H251ZM251 514H253C253 512.895 252.105 512 251 512V514ZM245 514H251V512H245V514ZM245 514V512C243.895 512 243 512.895 243 514H245ZM245 514H243C243 515.105 243.895 516 245 516V514ZM251 514H245V516H251V514ZM239 516C240.105 516 241 515.105 241 514H239V516ZM233 516H239V514H233V516ZM231 514C231 515.105 231.895 516 233 516V514H231ZM233 512C231.895 512 231 512.895 231 514H233V512ZM239 512H233V514H239V512ZM241 514C241 512.895 240.105 512 239 512V514H241ZM227 514V516C228.105 516 229 515.105 229 514H227ZM227 514H229C229 512.895 228.105 512 227 512V514ZM221 514H227V512H221V514ZM221 514V512C219.895 512 219 512.895 219 514H221ZM221 514H219C219 515.105 219.895 516 221 516V514ZM227 514H221V516H227V514ZM215 516C216.105 516 217 515.105 217 514H215V516ZM209 516H215V514H209V516ZM207 514C207 515.105 207.895 516 209 516V514H207ZM209 512C207.895 512 207 512.895 207 514H209V512ZM215 512H209V514H215V512ZM217 514C217 512.895 216.105 512 215 512V514H217ZM203 514V516C204.105 516 205 515.105 205 514H203ZM203 514H205C205 512.895 204.105 512 203 512V514ZM197 514H203V512H197V514ZM197 514V512C195.895 512 195 512.895 195 514H197ZM197 514H195C195 515.105 195.895 516 197 516V514ZM203 514H197V516H203V514ZM191 516C192.105 516 193 515.105 193 514H191V516ZM185 516H191V514H185V516ZM183 514C183 515.105 183.895 516 185 516V514H183ZM185 512C183.895 512 183 512.895 183 514H185V512ZM191 512H185V514H191V512ZM193 514C193 512.895 192.105 512 191 512V514H193ZM179 514V516C180.105 516 181 515.105 181 514H179ZM179 514H181C181 512.895 180.105 512 179 512V514ZM173 514H179V512H173V514ZM173 514V512C171.895 512 171 512.895 171 514H173ZM173 514H171C171 515.105 171.895 516 173 516V514ZM179 514H173V516H179V514ZM443 496C445.187 496 447.63 495.271 449.545 493.996C451.453 492.726 453 490.793 453 488.346H451C451 489.874 450.034 491.268 448.437 492.331C446.846 493.39 444.788 494 443 494V496ZM451 603C452.051 603 453 602.168 453 601.032H451C451 601.029 451 601.025 451.001 601.02C451.002 601.015 451.004 601.011 451.006 601.007C451.009 601 451.012 600.996 451.012 600.996C451.012 600.996 451.011 600.997 451.008 600.999C451.006 600.999 451.004 601 451 601V603ZM428.872 628C431.478 628 433.527 626.23 434.866 624.123C436.217 621.998 437 619.313 437 617H435C435 618.917 434.334 621.232 433.179 623.05C432.012 624.886 430.497 626 428.872 626V628ZM151 601.032C151 602.168 151.949 603 153 603V601C152.996 601 152.994 600.999 152.992 600.999C152.989 600.997 152.988 600.996 152.988 600.996C152.988 600.996 152.991 601 152.994 601.007C152.996 601.011 152.998 601.015 152.999 601.02C153 601.025 153 601.029 153 601.032H151ZM167 514C167 514.051 166.97 514.184 166.671 514.55C166.581 514.66 166.334 514.946 166.204 515.11C166.038 515.318 165.849 515.579 165.708 515.883L167.522 516.724C167.565 516.632 167.641 516.516 167.769 516.355C167.933 516.148 168.01 516.072 168.22 515.815C168.522 515.446 169 514.823 169 514H167ZM166.823 512.232C166.748 512.699 166.838 513.134 166.896 513.402C166.967 513.732 167 513.869 167 514H169C169 513.599 168.897 513.194 168.852 512.983C168.793 512.712 168.789 512.608 168.798 512.549L166.823 512.232ZM425.28 514C427.515 514 429 511.982 429 510H427C427 511.139 426.166 512 425.28 512V514ZM153 51C151.949 51 151 51.832 151 52.9679H153C153 52.971 153 52.9752 152.999 52.9801C152.998 52.9849 152.996 52.9893 152.994 52.9931C152.991 53.0005 152.988 53.0035 152.988 53.0036C152.988 53.0037 152.989 53.0025 152.992 53.0015C152.994 53.0006 152.996 53 153 53V51ZM153 524C151.949 524 151 524.832 151 525.968H153C153 525.971 153 525.975 152.999 525.98C152.998 525.985 152.996 525.989 152.994 525.993C152.991 526 152.988 526.004 152.988 526.004C152.988 526.004 152.989 526.003 152.992 526.001C152.994 526.001 152.996 526 153 526V524ZM175.128 26C172.522 26 170.473 27.7705 169.134 29.8771C167.783 32.0017 167 34.6867 167 37H169C169 35.083 169.666 32.7679 170.821 30.9501C171.988 29.1144 173.503 28 175.128 28V26ZM167 617C167 619.313 167.783 621.998 169.134 624.123C170.473 626.23 172.522 628 175.128 628V626C173.503 626 171.988 624.886 170.821 623.05C169.666 621.232 169 618.917 169 617H167ZM151 494.032C151 495.168 151.949 496 153 496V494C152.996 494 152.994 493.999 152.992 493.999C152.989 493.997 152.988 493.996 152.988 493.996C152.988 493.996 152.991 494 152.994 494.007C152.996 494.011 152.998 494.015 152.999 494.02C153 494.025 153 494.029 153 494.032H151ZM431.417 517.866C430.016 515.808 427.767 514 425 514V516C426.852 516 428.565 517.231 429.763 518.991L431.417 517.866ZM437 37C437 34.6867 436.217 32.0018 434.866 29.8771C433.527 27.7705 431.478 26 428.872 26V28C430.497 28 432.012 29.1144 433.179 30.9501C434.334 32.7679 435 35.083 435 37H437ZM453 531.654C453 529.207 451.453 527.274 449.545 526.004C447.63 524.729 445.187 524 443 524V526C444.788 526 446.846 526.61 448.437 527.669C450.034 528.732 451 530.126 451 531.654H453ZM451 53C451.004 53 451.006 53.0006 451.008 53.0015C451.011 53.0025 451.012 53.0037 451.012 53.0036C451.012 53.0035 451.009 53.0005 451.006 52.993C451.004 52.9893 451.002 52.9849 451.001 52.9801C451 52.9752 451 52.9709 451 52.9679H453C453 51.832 452.051 51 451 51V53Z" fill="#24A0B5" mask="url(#path-2-inside-1_4020_986)"/>
</g>
<defs>
<radialGradient id="paint0_radial_4020_986" cx="0" cy="0" r="1" gradientUnits="userSpaceOnUse" gradientTransform="translate(302 27) rotate(90) scale(83.5 150)">
<stop stop-color="#24A0B5" stop-opacity="0.5"/>
<stop offset="1" stop-color="#24A0B5" stop-opacity="0"/>
</radialGradient>
<radialGradient id="paint1_radial_4020_986" cx="0" cy="0" r="1" gradientUnits="userSpaceOnUse" gradientTransform="translate(302 646.5) rotate(-90) scale(217 150)">
<stop stop-color="#24A0B5" stop-opacity="0.5"/>
<stop offset="1" stop-color="#24A0B5" stop-opacity="0"/>
</radialGradient>
<clipPath id="clip0_4020_986">
<rect width="308" height="590" fill="white" transform="translate(148 32)"/>
</clipPath>
</defs>
</svg>
