<svg width="331" height="157" viewBox="0 0 331 157" fill="none" xmlns="http://www.w3.org/2000/svg">
<path d="M5.51163 130.761V139.489H4.45481V131.869H4.40368L2.27299 133.284V132.21L4.45481 130.761H5.51163Z" fill="white"/>
<path d="M41.5674 0H38.4883V129.85H41.5674V0Z" fill="white"/>
<path d="M47.7256 0H44.6465V129.85H47.7256V0Z" fill="white"/>
<path d="M3.07907 0H0V129.85H3.07907V0Z" fill="white"/>
<path d="M9.23678 0H6.15771V129.85H9.23678V0Z" fill="white"/>
<path d="M24.6327 0H12.3164V118.045H24.6327V0Z" fill="white"/>
<path d="M33.8701 0H29.2515V117.75H33.8701V0Z" fill="white"/>
<path d="M56.9624 0H53.8833V118.045H56.9624V0Z" fill="white"/>
<path d="M69.2787 0H63.1206V118.045H69.2787V0Z" fill="white"/>
<path d="M90.8325 0H87.7534V118.045H90.8325V0Z" fill="white"/>
<path d="M106.227 0H96.9902V118.045H106.227V0Z" fill="white"/>
<path d="M112.386 0H109.307V118.045H112.386V0Z" fill="white"/>
<path d="M121.622 0H115.464V118.045H121.622V0Z" fill="white"/>
<path d="M133.939 0H130.86V118.045H133.939V0Z" fill="white"/>
<path d="M149.334 0H146.255V118.045H149.334V0Z" fill="white"/>
<path d="M155.493 0H152.414V118.045H155.493V0Z" fill="white"/>
<path d="M164.73 0H161.651V118.045H164.73V0Z" fill="white"/>
<path d="M177.046 0H173.967V118.045H177.046V0Z" fill="white"/>
<path d="M91.1636 139.489V138.722L94.0442 135.568C94.3823 135.199 94.6607 134.878 94.8795 134.605C95.0982 134.33 95.2601 134.071 95.3653 133.83C95.4732 133.585 95.5272 133.33 95.5272 133.063C95.5272 132.756 95.4533 132.49 95.3056 132.266C95.1607 132.041 94.9618 131.868 94.709 131.746C94.4562 131.624 94.1721 131.563 93.8567 131.563C93.5215 131.563 93.2289 131.632 92.9789 131.771C92.7317 131.908 92.54 132.1 92.4036 132.347C92.2701 132.594 92.2033 132.884 92.2033 133.216H91.1976C91.1976 132.705 91.3155 132.256 91.5513 131.869C91.7871 131.483 92.1082 131.182 92.5144 130.966C92.9235 130.75 93.3823 130.642 93.8908 130.642C94.4022 130.642 94.8553 130.75 95.2502 130.966C95.6451 131.182 95.9547 131.473 96.1792 131.84C96.4036 132.206 96.5158 132.614 96.5158 133.063C96.5158 133.384 96.4576 133.698 96.3411 134.004C96.2275 134.308 96.0286 134.648 95.7445 135.023C95.4633 135.395 95.0726 135.85 94.5726 136.386L92.6124 138.483V138.551H96.6692V139.489H91.1636ZM101.378 139.608C100.816 139.608 100.314 139.511 99.8738 139.318C99.4363 139.125 99.0883 138.857 98.8297 138.513C98.5741 138.166 98.4349 137.764 98.4121 137.307H99.486C99.5087 137.588 99.6053 137.831 99.7758 138.036C99.9462 138.237 100.169 138.394 100.445 138.504C100.72 138.615 101.026 138.671 101.361 138.671C101.736 138.671 102.068 138.605 102.358 138.475C102.648 138.344 102.875 138.162 103.04 137.929C103.205 137.696 103.287 137.426 103.287 137.119C103.287 136.798 103.208 136.516 103.048 136.271C102.889 136.024 102.656 135.831 102.35 135.692C102.043 135.553 101.668 135.483 101.225 135.483H100.526V134.546H101.225C101.571 134.546 101.875 134.483 102.137 134.358C102.401 134.233 102.607 134.057 102.754 133.83C102.905 133.602 102.98 133.335 102.98 133.029C102.98 132.733 102.915 132.476 102.784 132.257C102.654 132.038 102.469 131.868 102.23 131.746C101.995 131.624 101.716 131.563 101.395 131.563C101.094 131.563 100.81 131.618 100.543 131.729C100.279 131.837 100.063 131.994 99.8951 132.202C99.7275 132.406 99.6366 132.654 99.6224 132.943H98.5996C98.6167 132.486 98.7545 132.085 99.013 131.742C99.2715 131.395 99.6096 131.125 100.027 130.932C100.448 130.739 100.909 130.642 101.412 130.642C101.952 130.642 102.415 130.752 102.801 130.97C103.188 131.186 103.485 131.472 103.692 131.827C103.899 132.182 104.003 132.565 104.003 132.977C104.003 133.469 103.874 133.888 103.615 134.235C103.36 134.581 103.012 134.821 102.571 134.955V135.023C103.122 135.114 103.553 135.348 103.862 135.726C104.172 136.101 104.327 136.565 104.327 137.119C104.327 137.594 104.198 138.02 103.939 138.398C103.683 138.773 103.334 139.068 102.891 139.284C102.448 139.5 101.943 139.608 101.378 139.608ZM105.865 137.699V136.83L109.7 130.761H110.331V132.108H109.905L107.007 136.693V136.761H112.172V137.699H105.865ZM109.973 139.489V137.435V137.03V130.761H110.979V139.489H109.973ZM116.496 139.608C115.996 139.608 115.546 139.509 115.145 139.31C114.745 139.111 114.424 138.838 114.182 138.492C113.941 138.145 113.809 137.75 113.786 137.307H114.809C114.849 137.702 115.028 138.029 115.346 138.287C115.667 138.543 116.05 138.671 116.496 138.671C116.854 138.671 117.172 138.587 117.451 138.419C117.732 138.252 117.952 138.021 118.111 137.729C118.273 137.433 118.354 137.1 118.354 136.727C118.354 136.347 118.27 136.007 118.103 135.709C117.938 135.408 117.711 135.171 117.421 134.997C117.131 134.824 116.8 134.736 116.428 134.733C116.161 134.73 115.887 134.771 115.606 134.857C115.324 134.939 115.093 135.046 114.911 135.176L113.922 135.057L114.451 130.761H118.985V131.699H115.337L115.03 134.273H115.082C115.26 134.131 115.485 134.013 115.755 133.919C116.025 133.825 116.306 133.779 116.599 133.779C117.133 133.779 117.609 133.906 118.026 134.162C118.447 134.415 118.776 134.761 119.015 135.202C119.256 135.642 119.377 136.145 119.377 136.71C119.377 137.267 119.252 137.764 119.002 138.202C118.755 138.636 118.414 138.98 117.979 139.233C117.545 139.483 117.05 139.608 116.496 139.608ZM123.968 139.608C123.61 139.602 123.252 139.534 122.894 139.404C122.536 139.273 122.209 139.053 121.914 138.743C121.618 138.431 121.381 138.009 121.202 137.477C121.023 136.943 120.933 136.273 120.933 135.466C120.933 134.693 121.006 134.009 121.151 133.412C121.296 132.813 121.506 132.308 121.781 131.899C122.057 131.487 122.389 131.175 122.779 130.962C123.171 130.749 123.612 130.642 124.104 130.642C124.593 130.642 125.027 130.74 125.408 130.936C125.791 131.129 126.104 131.399 126.345 131.746C126.587 132.092 126.743 132.492 126.814 132.943H125.774C125.678 132.551 125.49 132.226 125.212 131.967C124.933 131.709 124.564 131.58 124.104 131.58C123.428 131.58 122.895 131.874 122.506 132.462C122.12 133.05 121.925 133.875 121.922 134.938H121.99C122.149 134.696 122.338 134.49 122.557 134.32C122.779 134.146 123.023 134.013 123.29 133.919C123.557 133.825 123.84 133.779 124.138 133.779C124.638 133.779 125.095 133.904 125.51 134.154C125.925 134.401 126.257 134.743 126.507 135.181C126.757 135.615 126.882 136.114 126.882 136.676C126.882 137.216 126.762 137.71 126.52 138.159C126.279 138.605 125.939 138.96 125.502 139.225C125.067 139.486 124.556 139.614 123.968 139.608ZM123.968 138.671C124.325 138.671 124.647 138.581 124.931 138.402C125.218 138.223 125.443 137.983 125.608 137.682C125.776 137.381 125.86 137.046 125.86 136.676C125.86 136.315 125.779 135.987 125.617 135.692C125.458 135.394 125.237 135.156 124.956 134.98C124.678 134.804 124.36 134.716 124.002 134.716C123.732 134.716 123.48 134.77 123.247 134.878C123.014 134.983 122.81 135.128 122.634 135.313C122.46 135.497 122.324 135.709 122.225 135.948C122.125 136.183 122.075 136.432 122.075 136.693C122.075 137.04 122.156 137.364 122.318 137.665C122.483 137.966 122.708 138.209 122.992 138.394C123.279 138.578 123.604 138.671 123.968 138.671ZM128.831 139.489L132.734 131.767V131.699H128.234V130.761H133.825V131.75L129.939 139.489H128.831Z" fill="white"/>
<path d="M183.204 0H180.125V129.85H183.204V0Z" fill="white"/>
<path d="M189.363 0H186.284V129.85H189.363V0Z" fill="white"/>
<path d="M202.24 0H199.161V118.045H202.24V0Z" fill="white"/>
<path d="M211.477 0H208.398V118.045H211.477V0Z" fill="white"/>
<path d="M229.952 0H220.715V118.045H229.952V0Z" fill="white"/>
<path d="M236.11 0H233.031V118.045H236.11V0Z" fill="white"/>
<path d="M248.426 0H242.268V118.045H248.426V0Z" fill="white"/>
<path d="M260.743 0H254.584V118.045H260.743V0Z" fill="white"/>
<path d="M273.059 0H263.822V118.045H273.059V0Z" fill="white"/>
<path d="M282.296 0H279.217V118.045H282.296V0Z" fill="white"/>
<path d="M291.533 0H285.375V118.045H291.533V0Z" fill="white"/>
<path d="M300.77 0H294.612V118.045H300.77V0Z" fill="white"/>
<path d="M310.008 0H306.929V118.045H310.008V0Z" fill="white"/>
<path d="M316.165 0H313.086V118.045H316.165V0Z" fill="white"/>
<path d="M246.163 139.608C245.578 139.608 245.061 139.504 244.612 139.297C244.166 139.087 243.818 138.798 243.568 138.432C243.318 138.063 243.194 137.642 243.197 137.171C243.194 136.801 243.267 136.46 243.415 136.148C243.562 135.833 243.764 135.57 244.02 135.36C244.278 135.146 244.567 135.011 244.885 134.955V134.904C244.467 134.796 244.135 134.561 243.888 134.2C243.64 133.837 243.518 133.423 243.521 132.96C243.518 132.517 243.63 132.121 243.858 131.771C244.085 131.422 244.397 131.146 244.795 130.945C245.196 130.743 245.652 130.642 246.163 130.642C246.669 130.642 247.121 130.743 247.518 130.945C247.916 131.146 248.228 131.422 248.456 131.771C248.686 132.121 248.802 132.517 248.805 132.96C248.802 133.423 248.676 133.837 248.426 134.2C248.179 134.561 247.851 134.796 247.442 134.904V134.955C247.757 135.011 248.041 135.146 248.294 135.36C248.547 135.57 248.748 135.833 248.899 136.148C249.049 136.46 249.126 136.801 249.129 137.171C249.126 137.642 248.998 138.063 248.746 138.432C248.496 138.798 248.147 139.087 247.701 139.297C247.258 139.504 246.746 139.608 246.163 139.608ZM246.163 138.671C246.558 138.671 246.899 138.607 247.186 138.479C247.473 138.351 247.694 138.171 247.851 137.938C248.007 137.705 248.086 137.432 248.089 137.119C248.086 136.79 248.001 136.499 247.834 136.246C247.666 135.993 247.437 135.794 247.147 135.649C246.861 135.504 246.532 135.432 246.163 135.432C245.791 135.432 245.459 135.504 245.166 135.649C244.876 135.794 244.647 135.993 244.48 136.246C244.315 136.499 244.234 136.79 244.237 137.119C244.234 137.432 244.309 137.705 244.463 137.938C244.619 138.171 244.842 138.351 245.132 138.479C245.422 138.607 245.765 138.671 246.163 138.671ZM246.163 134.529C246.476 134.529 246.753 134.466 246.994 134.341C247.238 134.216 247.43 134.041 247.569 133.817C247.709 133.592 247.78 133.33 247.782 133.029C247.78 132.733 247.71 132.476 247.574 132.257C247.437 132.036 247.248 131.865 247.007 131.746C246.765 131.624 246.484 131.563 246.163 131.563C245.836 131.563 245.551 131.624 245.307 131.746C245.062 131.865 244.873 132.036 244.74 132.257C244.606 132.476 244.541 132.733 244.544 133.029C244.541 133.33 244.608 133.592 244.744 133.817C244.883 134.041 245.075 134.216 245.319 134.341C245.564 134.466 245.845 134.529 246.163 134.529ZM253.541 130.642C253.899 130.645 254.257 130.713 254.614 130.847C254.972 130.98 255.299 131.202 255.595 131.511C255.89 131.818 256.127 132.237 256.306 132.769C256.485 133.3 256.575 133.966 256.575 134.767C256.575 135.543 256.501 136.232 256.353 136.834C256.208 137.433 255.998 137.939 255.722 138.351C255.45 138.763 255.117 139.075 254.725 139.288C254.336 139.502 253.896 139.608 253.404 139.608C252.916 139.608 252.48 139.511 252.096 139.318C251.715 139.122 251.403 138.851 251.159 138.504C250.917 138.155 250.762 137.75 250.694 137.29H251.734C251.828 137.69 252.014 138.021 252.292 138.283C252.573 138.541 252.944 138.671 253.404 138.671C254.078 138.671 254.609 138.377 254.998 137.788C255.39 137.2 255.586 136.369 255.586 135.296H255.518C255.359 135.534 255.17 135.74 254.951 135.913C254.732 136.087 254.489 136.22 254.222 136.314C253.955 136.408 253.671 136.455 253.37 136.455C252.87 136.455 252.411 136.331 251.994 136.084C251.579 135.834 251.247 135.492 250.997 135.057C250.749 134.619 250.626 134.119 250.626 133.557C250.626 133.023 250.745 132.534 250.984 132.091C251.225 131.645 251.563 131.29 251.998 131.026C252.435 130.761 252.95 130.634 253.541 130.642ZM253.541 131.58C253.183 131.58 252.86 131.669 252.573 131.848C252.289 132.024 252.063 132.263 251.896 132.564C251.731 132.862 251.649 133.193 251.649 133.557C251.649 133.921 251.728 134.252 251.887 134.55C252.049 134.845 252.269 135.081 252.548 135.257C252.829 135.431 253.149 135.517 253.507 135.517C253.776 135.517 254.028 135.465 254.261 135.36C254.494 135.252 254.697 135.105 254.87 134.921C255.046 134.733 255.184 134.521 255.284 134.286C255.383 134.047 255.433 133.798 255.433 133.54C255.433 133.199 255.35 132.879 255.185 132.581C255.024 132.283 254.799 132.041 254.512 131.857C254.228 131.672 253.904 131.58 253.541 131.58ZM261.319 130.761V139.489H260.262V131.869H260.211L258.08 133.284V132.21L260.262 130.761H261.319ZM266.675 139.608C266.033 139.608 265.486 139.433 265.035 139.084C264.583 138.732 264.238 138.222 263.999 137.554C263.76 136.884 263.641 136.074 263.641 135.125C263.641 134.182 263.76 133.377 263.999 132.709C264.241 132.038 264.587 131.527 265.039 131.175C265.493 130.82 266.039 130.642 266.675 130.642C267.312 130.642 267.856 130.82 268.307 131.175C268.762 131.527 269.108 132.038 269.347 132.709C269.589 133.377 269.709 134.182 269.709 135.125C269.709 136.074 269.59 136.884 269.351 137.554C269.113 138.222 268.768 138.732 268.316 139.084C267.864 139.433 267.317 139.608 266.675 139.608ZM266.675 138.671C267.312 138.671 267.806 138.364 268.158 137.75C268.51 137.136 268.687 136.261 268.687 135.125C268.687 134.369 268.606 133.726 268.444 133.195C268.285 132.663 268.054 132.259 267.753 131.98C267.455 131.702 267.096 131.563 266.675 131.563C266.045 131.563 265.552 131.874 265.197 132.496C264.841 133.115 264.664 133.992 264.664 135.125C264.664 135.881 264.743 136.523 264.902 137.051C265.062 137.58 265.29 137.982 265.589 138.257C265.89 138.533 266.252 138.671 266.675 138.671ZM271.329 139.489V138.722L274.209 135.568C274.547 135.199 274.826 134.878 275.045 134.605C275.263 134.33 275.425 134.071 275.53 133.83C275.638 133.585 275.692 133.33 275.692 133.063C275.692 132.756 275.618 132.49 275.471 132.266C275.326 132.041 275.127 131.868 274.874 131.746C274.621 131.624 274.337 131.563 274.022 131.563C273.687 131.563 273.394 131.632 273.144 131.771C272.897 131.908 272.705 132.1 272.569 132.347C272.435 132.594 272.368 132.884 272.368 133.216H271.363C271.363 132.705 271.481 132.256 271.716 131.869C271.952 131.483 272.273 131.182 272.679 130.966C273.089 130.75 273.547 130.642 274.056 130.642C274.567 130.642 275.02 130.75 275.415 130.966C275.81 131.182 276.12 131.473 276.344 131.84C276.569 132.206 276.681 132.614 276.681 133.063C276.681 133.384 276.623 133.698 276.506 134.004C276.393 134.308 276.194 134.648 275.91 135.023C275.628 135.395 275.238 135.85 274.738 136.386L272.777 138.483V138.551H276.834V139.489H271.329ZM281.492 139.608C281.134 139.602 280.776 139.534 280.418 139.404C280.06 139.273 279.733 139.053 279.438 138.743C279.143 138.431 278.905 138.009 278.726 137.477C278.547 136.943 278.458 136.273 278.458 135.466C278.458 134.693 278.53 134.009 278.675 133.412C278.82 132.813 279.03 132.308 279.306 131.899C279.581 131.487 279.914 131.175 280.303 130.962C280.695 130.749 281.137 130.642 281.628 130.642C282.117 130.642 282.552 130.74 282.932 130.936C283.316 131.129 283.628 131.399 283.87 131.746C284.111 132.092 284.268 132.492 284.339 132.943H283.299C283.202 132.551 283.015 132.226 282.736 131.967C282.458 131.709 282.089 131.58 281.628 131.58C280.952 131.58 280.42 131.874 280.03 132.462C279.644 133.05 279.449 133.875 279.447 134.938H279.515C279.674 134.696 279.863 134.49 280.081 134.32C280.303 134.146 280.547 134.013 280.814 133.919C281.081 133.825 281.364 133.779 281.662 133.779C282.162 133.779 282.62 133.904 283.035 134.154C283.449 134.401 283.782 134.743 284.032 135.181C284.282 135.615 284.407 136.114 284.407 136.676C284.407 137.216 284.286 137.71 284.045 138.159C283.803 138.605 283.464 138.96 283.026 139.225C282.591 139.486 282.08 139.614 281.492 139.608ZM281.492 138.671C281.85 138.671 282.171 138.581 282.455 138.402C282.742 138.223 282.968 137.983 283.133 137.682C283.3 137.381 283.384 137.046 283.384 136.676C283.384 136.315 283.303 135.987 283.141 135.692C282.982 135.394 282.762 135.156 282.481 134.98C282.202 134.804 281.884 134.716 281.526 134.716C281.256 134.716 281.005 134.77 280.772 134.878C280.539 134.983 280.334 135.128 280.158 135.313C279.985 135.497 279.848 135.709 279.749 135.948C279.65 136.183 279.6 136.432 279.6 136.693C279.6 137.04 279.681 137.364 279.843 137.665C280.008 137.966 280.232 138.209 280.516 138.394C280.803 138.578 281.128 138.671 281.492 138.671Z" fill="white"/>
<path d="M324.842 0H321.763V129.85H324.842V0Z" fill="white"/>
<path d="M331 0H327.921V129.85H331V0Z" fill="white"/>
</svg>
